<svg width="31" height="24" viewBox="0 0 31 24" fill="none" xmlns="http://www.w3.org/2000/svg">
<path d="M12.2615 15.7616C12.2615 16.8431 11.6981 18.6129 10.3645 18.6129C9.03094 18.6129 8.46754 16.8431 8.46754 15.7616C8.46754 14.68 9.03094 12.9102 10.3645 12.9102C11.6981 12.9102 12.2615 14.68 12.2615 15.7616ZM27.4526 13.1483C27.4526 14.799 27.2872 16.5481 26.5481 18.0644C24.5891 22.0283 19.2032 21.9351 15.3472 21.9351C11.4293 21.9351 5.72289 22.0748 3.68638 18.0644C2.93173 16.5637 2.64227 14.799 2.64227 13.1483C2.64227 10.98 3.36074 8.93081 4.78734 7.2697C4.51856 6.45208 4.38934 5.59306 4.38934 4.74439C4.38934 3.63181 4.64261 3.07293 5.14398 2.06384C7.48546 2.06384 8.98442 2.52958 10.7677 3.92677C12.2666 3.56971 13.8069 3.40929 15.3524 3.40929C16.748 3.40929 18.1539 3.55936 19.5082 3.88538C21.2656 2.5037 22.7645 2.06384 25.0801 2.06384C25.5867 3.07293 25.8348 3.63181 25.8348 4.74439C25.8348 5.59306 25.7004 6.43656 25.4368 7.23865C26.8582 8.91529 27.4526 10.98 27.4526 13.1483ZM24.1291 15.7616C24.1291 13.4898 22.749 11.4872 20.33 11.4872C19.3531 11.4872 18.4175 11.6631 17.4355 11.7977C16.6653 11.9167 15.8951 11.9633 15.1043 11.9633C14.3187 11.9633 13.5485 11.9167 12.7732 11.7977C11.8066 11.6631 10.8607 11.4872 9.87863 11.4872C7.45962 11.4872 6.07954 13.4898 6.07954 15.7616C6.07954 20.305 10.2353 21.0036 13.8535 21.0036H16.3448C19.9785 21.0036 24.1291 20.3102 24.1291 15.7616ZM19.8596 12.9102C18.5261 12.9102 17.9627 14.68 17.9627 15.7616C17.9627 16.8431 18.5261 18.6129 19.8596 18.6129C21.1932 18.6129 21.7566 16.8431 21.7566 15.7616C21.7566 14.68 21.1932 12.9102 19.8596 12.9102Z" fill="#BABABA"/>
</svg>
