<svg width="31" height="24" viewBox="0 0 31 24" fill="none" xmlns="http://www.w3.org/2000/svg">
<path fill-rule="evenodd" clip-rule="evenodd" d="M24.7748 3.68466C25.8731 3.99844 26.6575 4.7829 26.9713 5.88113C27.5988 7.9207 27.5988 11.9999 27.5988 11.9999C27.5988 11.9999 27.5989 16.079 27.1282 18.1186C26.8144 19.2168 26.0299 20.0013 24.9317 20.315C22.8921 20.7857 15.0476 20.7857 15.0476 20.7857C15.0476 20.7857 7.04619 20.7857 5.1635 20.315C4.06527 20.0013 3.28083 19.2168 2.96704 18.1186C2.49637 16.079 2.49637 11.9999 2.49637 11.9999C2.49637 11.9999 2.49636 7.9207 2.81014 5.88113C3.12393 4.7829 3.90839 3.99844 5.00663 3.68466C7.0462 3.21399 14.8907 3.21399 14.8907 3.21399C14.8907 3.21399 22.8921 3.21399 24.7748 3.68466ZM12.5373 8.92375C12.5373 8.61663 12.8691 8.42408 13.1358 8.57646L18.519 11.6526C18.7877 11.8061 18.7877 12.1936 18.519 12.3472L13.1358 15.4233C12.8691 15.5756 12.5373 15.3831 12.5373 15.076V8.92375Z" fill="#BABABA"/>
</svg>
